# MagicaVoxel @ Ephtracy

# group
o 

# material
mtllib et.mtl
usemtl palette

# normals
vn -1 0 0
vn 1 0 0
vn 0 0 1
vn 0 0 -1
vn 0 -1 0
vn 0 1 0

# texcoords
vt 0.544922 0.5
vt 0.716797 0.5

# verts
v -0.1 0.2 0.2
v -0.1 0.2 -0.1
v -0.1 0.4 0.2
v -0.1 0.4 -0.1
v 0 0.1 0.2
v 0 0.1 -0.1
v 0 0.2 0.2
v 0 0.2 -0.1
v 0 0.4 0.2
v 0 0.4 -0.1
v 0 0.5 0.2
v 0 0.5 -0.1
v 0.2 0.1 0.2
v 0.2 0.1 -0.1
v 0.2 0.2 0.2
v 0.2 0.2 -0.1
v 0.1 0.1 0.2
v 0.1 0.1 -0.1
v 0.1 0.2 0.2
v 0.1 0.2 -0.1
v 0.3 0.1 0.2
v 0.3 0.1 -0.1
v 0.3 0.2 0.2
v 0.3 0.2 -0.1
v 0.3 0.4 0.2
v 0.3 0.4 -0.1
v 0.3 0.5 0.2
v 0.3 0.5 -0.1
v 0.4 0.2 0.2
v 0.4 0.2 -0.1
v 0.4 0.4 0.2
v 0.4 0.4 -0.1
v -0.1 0.2 0.2
v -0.1 0.4 0.2
v 0 0.1 0.2
v 0 0.2 0.2
v 0 0.3 0.2
v 0 0.4 0.2
v 0 0.5 0.2
v 0.1 0.1 0.2
v 0.1 0.2 0.2
v 0.1 0.3 0.2
v 0.1 0.4 0.2
v 0.2 0.1 0.2
v 0.2 0.2 0.2
v 0.2 0.3 0.2
v 0.2 0.4 0.2
v 0.3 0.1 0.2
v 0.3 0.2 0.2
v 0.3 0.3 0.2
v 0.3 0.4 0.2
v 0.3 0.5 0.2
v 0.4 0.2 0.2
v 0.4 0.4 0.2
v -0.1 0.2 -0.1
v -0.1 0.4 -0.1
v 0 0.1 -0.1
v 0 0.2 -0.1
v 0 0.4 -0.1
v 0 0.5 -0.1
v 0.1 0.1 -0.1
v 0.1 0.2 -0.1
v 0.2 0.1 -0.1
v 0.2 0.2 -0.1
v 0.3 0.1 -0.1
v 0.3 0.2 -0.1
v 0.3 0.4 -0.1
v 0.3 0.5 -0.1
v 0.4 0.2 -0.1
v 0.4 0.4 -0.1
v 0 0.1 0.2
v 0.1 0.1 0.2
v 0.2 0.1 0.2
v 0.3 0.1 0.2
v 0 0.1 -0.1
v 0.1 0.1 -0.1
v 0.2 0.1 -0.1
v 0.3 0.1 -0.1
v -0.1 0.2 0.2
v 0 0.2 0.2
v 0.1 0.2 0.2
v 0.2 0.2 0.2
v 0.3 0.2 0.2
v 0.4 0.2 0.2
v -0.1 0.2 -0.1
v 0 0.2 -0.1
v 0.1 0.2 -0.1
v 0.2 0.2 -0.1
v 0.3 0.2 -0.1
v 0.4 0.2 -0.1
v -0.1 0.4 0.2
v 0 0.4 0.2
v 0.3 0.4 0.2
v 0.4 0.4 0.2
v -0.1 0.4 -0.1
v 0 0.4 -0.1
v 0.3 0.4 -0.1
v 0.4 0.4 -0.1
v 0 0.5 0.2
v 0.3 0.5 0.2
v 0 0.5 -0.1
v 0.3 0.5 -0.1

# faces
f 3/2/1 2/2/1 1/2/1
f 4/2/1 2/2/1 3/2/1
f 7/2/1 6/2/1 5/2/1
f 8/2/1 6/2/1 7/2/1
f 11/2/1 10/2/1 9/2/1
f 12/2/1 10/2/1 11/2/1
f 15/2/1 14/2/1 13/2/1
f 16/2/1 14/2/1 15/2/1
f 17/2/2 18/2/2 19/2/2
f 19/2/2 18/2/2 20/2/2
f 21/2/2 22/2/2 23/2/2
f 23/2/2 22/2/2 24/2/2
f 25/2/2 26/2/2 27/2/2
f 27/2/2 26/2/2 28/2/2
f 29/2/2 30/2/2 31/2/2
f 31/2/2 30/2/2 32/2/2
f 36/2/3 34/2/3 33/2/3
f 37/2/3 34/2/3 36/2/3
f 38/2/3 34/2/3 37/2/3
f 40/2/3 36/2/3 35/2/3
f 40/2/3 37/2/3 36/2/3
f 41/2/3 37/2/3 40/2/3
f 42/1/3 38/1/3 37/1/3
f 42/2/3 37/2/3 41/2/3
f 43/2/3 39/2/3 38/2/3
f 43/1/3 38/1/3 42/1/3
f 45/2/3 42/2/3 41/2/3
f 45/2/3 43/2/3 42/2/3
f 46/2/3 43/2/3 45/2/3
f 47/2/3 39/2/3 43/2/3
f 47/2/3 43/2/3 46/2/3
f 48/2/3 46/2/3 45/2/3
f 48/2/3 45/2/3 44/2/3
f 49/2/3 46/2/3 48/2/3
f 50/1/3 47/1/3 46/1/3
f 50/2/3 46/2/3 49/2/3
f 51/2/3 39/2/3 47/2/3
f 51/1/3 47/1/3 50/1/3
f 52/2/3 39/2/3 51/2/3
f 53/2/3 50/2/3 49/2/3
f 53/2/3 51/2/3 50/2/3
f 54/2/3 51/2/3 53/2/3
f 55/2/4 56/2/4 58/2/4
f 58/2/4 56/2/4 59/2/4
f 57/2/4 58/2/4 61/2/4
f 59/2/4 60/2/4 61/2/4
f 58/2/4 59/2/4 61/2/4
f 61/2/4 60/2/4 62/2/4
f 62/2/4 60/2/4 64/2/4
f 63/2/4 64/2/4 65/2/4
f 64/2/4 60/2/4 66/2/4
f 65/2/4 64/2/4 66/2/4
f 66/2/4 60/2/4 67/2/4
f 67/2/4 60/2/4 68/2/4
f 66/2/4 67/2/4 69/2/4
f 69/2/4 67/2/4 70/2/4
f 75/2/5 72/2/5 71/2/5
f 76/2/5 72/2/5 75/2/5
f 77/2/5 74/2/5 73/2/5
f 78/2/5 74/2/5 77/2/5
f 85/2/5 80/2/5 79/2/5
f 86/2/5 80/2/5 85/2/5
f 87/2/5 82/2/5 81/2/5
f 88/2/5 82/2/5 87/2/5
f 89/2/5 84/2/5 83/2/5
f 90/2/5 84/2/5 89/2/5
f 91/2/6 92/2/6 95/2/6
f 95/2/6 92/2/6 96/2/6
f 93/2/6 94/2/6 97/2/6
f 97/2/6 94/2/6 98/2/6
f 99/2/6 100/2/6 101/2/6
f 101/2/6 100/2/6 102/2/6
