# MagicaVoxel @ Ephtracy

# group
o 

# material
mtllib skewers.mtl
usemtl palette

# normals
vn -1 0 0
vn 1 0 0
vn 0 0 1
vn 0 0 -1
vn 0 -1 0
vn 0 1 0

# texcoords
vt 0.0410156 0.5
vt 0.0449219 0.5
vt 0.134766 0.5
vt 0.205078 0.5
vt 0.537109 0.5
vt 0.630859 0.5
vt 0.962891 0.5

# verts
v -0.2 0.3 0.3
v -0.2 0.3 0
v -0.2 0.4 0.3
v -0.2 0.4 0
v -0.2 0.7 0.3
v -0.2 0.7 0
v -0.2 0.8 0.3
v -0.2 0.8 0
v -0.2 1.1 0.3
v -0.2 1.1 0
v -0.2 1.2 0.3
v -0.2 1.2 0
v -0.1 0 0.3
v -0.1 0 0
v -0.1 0.1 0.3
v -0.1 0.1 0
v -0.1 0.3 0.4
v -0.1 0.3 0.3
v -0.1 0.3 0
v -0.1 0.3 -0.1
v -0.1 0.4 0.4
v -0.1 0.4 0.3
v -0.1 0.4 0
v -0.1 0.4 -0.1
v -0.1 0.6 0.3
v -0.1 0.6 0
v -0.1 0.7 0.4
v -0.1 0.7 0.3
v -0.1 0.7 0
v -0.1 0.7 -0.1
v -0.1 0.8 0.4
v -0.1 0.8 0.3
v -0.1 0.8 0
v -0.1 0.8 -0.1
v -0.1 0.9 0.3
v -0.1 0.9 0
v -0.1 1.1 0.4
v -0.1 1.1 0.3
v -0.1 1.1 0
v -0.1 1.1 -0.1
v -0.1 1.2 0.4
v -0.1 1.2 0.3
v -0.1 1.2 0
v -0.1 1.2 -0.1
v 2.98023e-08 -0.2 0.2
v 2.98023e-08 -0.2 0.1
v 2.98023e-08 0 0.2
v 2.98023e-08 0 0.1
v 2.98023e-08 1.2 0.2
v 2.98023e-08 1.2 0.1
v 2.98023e-08 1.3 0.2
v 2.98023e-08 1.3 0.1
v 0.1 -0.2 0.2
v 0.1 -0.2 0.1
v 0.1 0 0.2
v 0.1 0 0.1
v 0.1 1.2 0.2
v 0.1 1.2 0.1
v 0.1 1.3 0.2
v 0.1 1.3 0.1
v 0.2 0 0.3
v 0.2 0 0
v 0.2 0.1 0.3
v 0.2 0.1 0
v 0.2 0.3 0.4
v 0.2 0.3 0.3
v 0.2 0.3 0
v 0.2 0.3 -0.1
v 0.2 0.4 0.4
v 0.2 0.4 0.3
v 0.2 0.4 0
v 0.2 0.4 -0.1
v 0.2 0.6 0.3
v 0.2 0.6 0
v 0.2 0.7 0.4
v 0.2 0.7 0.3
v 0.2 0.7 0
v 0.2 0.7 -0.1
v 0.2 0.8 0.4
v 0.2 0.8 0.3
v 0.2 0.8 0
v 0.2 0.8 -0.1
v 0.2 0.9 0.3
v 0.2 0.9 0
v 0.2 1.1 0.4
v 0.2 1.1 0.3
v 0.2 1.1 0
v 0.2 1.1 -0.1
v 0.2 1.2 0.4
v 0.2 1.2 0.3
v 0.2 1.2 0
v 0.2 1.2 -0.1
v 0.3 0.3 0.3
v 0.3 0.3 0
v 0.3 0.4 0.3
v 0.3 0.4 0
v 0.3 0.7 0.3
v 0.3 0.7 0
v 0.3 0.8 0.3
v 0.3 0.8 0
v 0.3 1.1 0.3
v 0.3 1.1 0
v 0.3 1.2 0.3
v 0.3 1.2 0
v -0.1 0.3 0.4
v -0.1 0.4 0.4
v -0.1 0.7 0.4
v -0.1 0.8 0.4
v -0.1 1.1 0.4
v -0.1 1.2 0.4
v 0.2 0.3 0.4
v 0.2 0.4 0.4
v 0.2 0.7 0.4
v 0.2 0.8 0.4
v 0.2 1.1 0.4
v 0.2 1.2 0.4
v -0.2 0.3 0.3
v -0.2 0.4 0.3
v -0.2 0.7 0.3
v -0.2 0.8 0.3
v -0.2 1.1 0.3
v -0.2 1.2 0.3
v -0.1 0 0.3
v -0.1 0.1 0.3
v -0.1 0.3 0.3
v -0.1 0.4 0.3
v -0.1 0.6 0.3
v -0.1 0.7 0.3
v -0.1 0.8 0.3
v -0.1 0.9 0.3
v -0.1 1.1 0.3
v -0.1 1.2 0.3
v 0.2 0 0.3
v 0.2 0.1 0.3
v 0.2 0.3 0.3
v 0.2 0.4 0.3
v 0.2 0.6 0.3
v 0.2 0.7 0.3
v 0.2 0.8 0.3
v 0.2 0.9 0.3
v 0.2 1.1 0.3
v 0.2 1.2 0.3
v 0.3 0.3 0.3
v 0.3 0.4 0.3
v 0.3 0.7 0.3
v 0.3 0.8 0.3
v 0.3 1.1 0.3
v 0.3 1.2 0.3
v 2.98023e-08 -0.2 0.2
v 2.98023e-08 0 0.2
v 2.98023e-08 1.2 0.2
v 2.98023e-08 1.3 0.2
v 0.1 -0.2 0.2
v 0.1 0 0.2
v 0.1 1.2 0.2
v 0.1 1.3 0.2
v 2.98023e-08 -0.2 0.1
v 2.98023e-08 0 0.1
v 2.98023e-08 1.2 0.1
v 2.98023e-08 1.3 0.1
v 0.1 -0.2 0.1
v 0.1 0 0.1
v 0.1 1.2 0.1
v 0.1 1.3 0.1
v -0.2 0.3 0
v -0.2 0.4 0
v -0.2 0.7 0
v -0.2 0.8 0
v -0.2 1.1 0
v -0.2 1.2 0
v -0.1 0 0
v -0.1 0.1 0
v -0.1 0.3 0
v -0.1 0.4 0
v -0.1 0.6 0
v -0.1 0.7 0
v -0.1 0.8 0
v -0.1 0.9 0
v -0.1 1.1 0
v -0.1 1.2 0
v 0.2 0 0
v 0.2 0.1 0
v 0.2 0.3 0
v 0.2 0.4 0
v 0.2 0.6 0
v 0.2 0.7 0
v 0.2 0.8 0
v 0.2 0.9 0
v 0.2 1.1 0
v 0.2 1.2 0
v 0.3 0.3 0
v 0.3 0.4 0
v 0.3 0.7 0
v 0.3 0.8 0
v 0.3 1.1 0
v 0.3 1.2 0
v -0.1 0.3 -0.1
v -0.1 0.4 -0.1
v -0.1 0.7 -0.1
v -0.1 0.8 -0.1
v -0.1 1.1 -0.1
v -0.1 1.2 -0.1
v 0.2 0.3 -0.1
v 0.2 0.4 -0.1
v 0.2 0.7 -0.1
v 0.2 0.8 -0.1
v 0.2 1.1 -0.1
v 0.2 1.2 -0.1
v 2.98023e-08 -0.2 0.2
v 0.1 -0.2 0.2
v 2.98023e-08 -0.2 0.1
v 0.1 -0.2 0.1
v -0.1 0 0.3
v 0.2 0 0.3
v 2.98023e-08 0 0.2
v 0.1 0 0.2
v 2.98023e-08 0 0.1
v 0.1 0 0.1
v -0.1 0 0
v 0.2 0 0
v -0.1 0.3 0.4
v 0.2 0.3 0.4
v -0.2 0.3 0.3
v -0.1 0.3 0.3
v 0.2 0.3 0.3
v 0.3 0.3 0.3
v -0.2 0.3 0
v -0.1 0.3 0
v 0.2 0.3 0
v 0.3 0.3 0
v -0.1 0.3 -0.1
v 0.2 0.3 -0.1
v -0.1 0.7 0.4
v 0.2 0.7 0.4
v -0.2 0.7 0.3
v -0.1 0.7 0.3
v 0.2 0.7 0.3
v 0.3 0.7 0.3
v -0.2 0.7 0
v -0.1 0.7 0
v 0.2 0.7 0
v 0.3 0.7 0
v -0.1 0.7 -0.1
v 0.2 0.7 -0.1
v -0.1 1.1 0.4
v 0.2 1.1 0.4
v -0.2 1.1 0.3
v -0.1 1.1 0.3
v 0.2 1.1 0.3
v 0.3 1.1 0.3
v -0.2 1.1 0
v -0.1 1.1 0
v 0.2 1.1 0
v 0.3 1.1 0
v -0.1 1.1 -0.1
v 0.2 1.1 -0.1
v -0.1 0.4 0.4
v 0.2 0.4 0.4
v -0.2 0.4 0.3
v -0.1 0.4 0.3
v 0.2 0.4 0.3
v 0.3 0.4 0.3
v -0.2 0.4 0
v -0.1 0.4 0
v 0.2 0.4 0
v 0.3 0.4 0
v -0.1 0.4 -0.1
v 0.2 0.4 -0.1
v -0.1 0.8 0.4
v 0.2 0.8 0.4
v -0.2 0.8 0.3
v -0.1 0.8 0.3
v 0.2 0.8 0.3
v 0.3 0.8 0.3
v -0.2 0.8 0
v -0.1 0.8 0
v 0.2 0.8 0
v 0.3 0.8 0
v -0.1 0.8 -0.1
v 0.2 0.8 -0.1
v -0.1 1.2 0.4
v 0.2 1.2 0.4
v -0.2 1.2 0.3
v -0.1 1.2 0.3
v 0.2 1.2 0.3
v 0.3 1.2 0.3
v 2.98023e-08 1.2 0.2
v 0.1 1.2 0.2
v 2.98023e-08 1.2 0.1
v 0.1 1.2 0.1
v -0.2 1.2 0
v -0.1 1.2 0
v 0.2 1.2 0
v 0.3 1.2 0
v -0.1 1.2 -0.1
v 0.2 1.2 -0.1
v 2.98023e-08 1.3 0.2
v 0.1 1.3 0.2
v 2.98023e-08 1.3 0.1
v 0.1 1.3 0.1

# faces
f 3/2/1 2/2/1 1/2/1
f 4/2/1 2/2/1 3/2/1
f 7/6/1 6/6/1 5/6/1
f 8/6/1 6/6/1 7/6/1
f 11/2/1 10/2/1 9/2/1
f 12/2/1 10/2/1 11/2/1
f 15/3/1 14/3/1 13/3/1
f 16/3/1 14/3/1 15/3/1
f 18/5/1 16/5/1 15/5/1
f 19/5/1 16/5/1 18/5/1
f 21/2/1 18/2/1 17/2/1
f 22/2/1 18/2/1 21/2/1
f 23/2/1 20/2/1 19/2/1
f 24/2/1 20/2/1 23/2/1
f 25/5/1 23/5/1 22/5/1
f 26/5/1 23/5/1 25/5/1
f 28/3/1 26/3/1 25/3/1
f 29/3/1 26/3/1 28/3/1
f 31/6/1 28/6/1 27/6/1
f 32/6/1 28/6/1 31/6/1
f 33/6/1 30/6/1 29/6/1
f 34/6/1 30/6/1 33/6/1
f 35/7/1 33/7/1 32/7/1
f 36/7/1 33/7/1 35/7/1
f 38/5/1 36/5/1 35/5/1
f 39/5/1 36/5/1 38/5/1
f 41/2/1 38/2/1 37/2/1
f 42/2/1 38/2/1 41/2/1
f 43/2/1 40/2/1 39/2/1
f 44/2/1 40/2/1 43/2/1
f 47/4/1 46/4/1 45/4/1
f 48/4/1 46/4/1 47/4/1
f 51/4/1 50/4/1 49/4/1
f 52/4/1 50/4/1 51/4/1
f 53/4/2 54/4/2 55/4/2
f 55/4/2 54/4/2 56/4/2
f 57/4/2 58/4/2 59/4/2
f 59/4/2 58/4/2 60/4/2
f 61/3/2 62/3/2 63/3/2
f 63/3/2 62/3/2 64/3/2
f 63/5/2 64/5/2 66/5/2
f 66/5/2 64/5/2 67/5/2
f 65/2/2 66/2/2 69/2/2
f 69/2/2 66/2/2 70/2/2
f 67/2/2 68/2/2 71/2/2
f 71/2/2 68/2/2 72/2/2
f 70/5/2 71/5/2 73/5/2
f 73/5/2 71/5/2 74/5/2
f 73/3/2 74/3/2 76/3/2
f 76/3/2 74/3/2 77/3/2
f 75/6/2 76/6/2 79/6/2
f 79/6/2 76/6/2 80/6/2
f 77/6/2 78/6/2 81/6/2
f 81/6/2 78/6/2 82/6/2
f 80/7/2 81/7/2 83/7/2
f 83/7/2 81/7/2 84/7/2
f 83/5/2 84/5/2 86/5/2
f 86/5/2 84/5/2 87/5/2
f 85/2/2 86/2/2 89/2/2
f 89/2/2 86/2/2 90/2/2
f 87/2/2 88/2/2 91/2/2
f 91/2/2 88/2/2 92/2/2
f 93/2/2 94/2/2 95/2/2
f 95/2/2 94/2/2 96/2/2
f 97/6/2 98/6/2 99/6/2
f 99/6/2 98/6/2 100/6/2
f 101/2/2 102/2/2 103/2/2
f 103/2/2 102/2/2 104/2/2
f 111/2/3 106/2/3 105/2/3
f 112/2/3 106/2/3 111/2/3
f 113/6/3 108/6/3 107/6/3
f 114/6/3 108/6/3 113/6/3
f 115/2/3 110/2/3 109/2/3
f 116/2/3 110/2/3 115/2/3
f 125/2/3 118/2/3 117/2/3
f 126/2/3 118/2/3 125/2/3
f 128/6/3 120/6/3 119/6/3
f 129/6/3 120/6/3 128/6/3
f 131/2/3 122/2/3 121/2/3
f 132/2/3 122/2/3 131/2/3
f 133/3/3 124/3/3 123/3/3
f 134/5/3 125/5/3 124/5/3
f 134/3/3 124/3/3 133/3/3
f 135/5/3 125/5/3 134/5/3
f 136/5/3 127/5/3 126/5/3
f 137/3/3 128/3/3 127/3/3
f 137/5/3 127/5/3 136/5/3
f 138/3/3 128/3/3 137/3/3
f 139/7/3 130/7/3 129/7/3
f 140/5/3 131/5/3 130/5/3
f 140/7/3 130/7/3 139/7/3
f 141/5/3 131/5/3 140/5/3
f 143/2/3 136/2/3 135/2/3
f 144/2/3 136/2/3 143/2/3
f 145/6/3 139/6/3 138/6/3
f 146/6/3 139/6/3 145/6/3
f 147/2/3 142/2/3 141/2/3
f 148/2/3 142/2/3 147/2/3
f 153/4/3 150/4/3 149/4/3
f 154/4/3 150/4/3 153/4/3
f 155/4/3 152/4/3 151/4/3
f 156/4/3 152/4/3 155/4/3
f 157/4/4 158/4/4 161/4/4
f 161/4/4 158/4/4 162/4/4
f 159/4/4 160/4/4 163/4/4
f 163/4/4 160/4/4 164/4/4
f 165/2/4 166/2/4 173/2/4
f 173/2/4 166/2/4 174/2/4
f 167/6/4 168/6/4 176/6/4
f 176/6/4 168/6/4 177/6/4
f 169/2/4 170/2/4 179/2/4
f 179/2/4 170/2/4 180/2/4
f 171/3/4 172/3/4 181/3/4
f 172/5/4 173/5/4 182/5/4
f 181/3/4 172/3/4 182/3/4
f 182/5/4 173/5/4 183/5/4
f 174/5/4 175/5/4 184/5/4
f 175/3/4 176/3/4 185/3/4
f 184/5/4 175/5/4 185/5/4
f 185/3/4 176/3/4 186/3/4
f 177/7/4 178/7/4 187/7/4
f 178/5/4 179/5/4 188/5/4
f 187/7/4 178/7/4 188/7/4
f 188/5/4 179/5/4 189/5/4
f 183/2/4 184/2/4 191/2/4
f 191/2/4 184/2/4 192/2/4
f 186/6/4 187/6/4 193/6/4
f 193/6/4 187/6/4 194/6/4
f 189/2/4 190/2/4 195/2/4
f 195/2/4 190/2/4 196/2/4
f 197/2/4 198/2/4 203/2/4
f 203/2/4 198/2/4 204/2/4
f 199/6/4 200/6/4 205/6/4
f 205/6/4 200/6/4 206/6/4
f 201/2/4 202/2/4 207/2/4
f 207/2/4 202/2/4 208/2/4
f 211/4/5 210/4/5 209/4/5
f 212/4/5 210/4/5 211/4/5
f 215/3/5 214/3/5 213/3/5
f 216/3/5 214/3/5 215/3/5
f 217/3/5 215/3/5 213/3/5
f 218/3/5 214/3/5 216/3/5
f 219/3/5 217/3/5 213/3/5
f 219/3/5 218/3/5 217/3/5
f 220/3/5 214/3/5 218/3/5
f 220/3/5 218/3/5 219/3/5
f 224/2/5 222/2/5 221/2/5
f 225/2/5 222/2/5 224/2/5
f 227/2/5 224/2/5 223/2/5
f 228/2/5 224/2/5 227/2/5
f 229/2/5 226/2/5 225/2/5
f 230/2/5 226/2/5 229/2/5
f 231/2/5 229/2/5 228/2/5
f 232/2/5 229/2/5 231/2/5
f 236/6/5 234/6/5 233/6/5
f 237/6/5 234/6/5 236/6/5
f 239/6/5 236/6/5 235/6/5
f 240/6/5 236/6/5 239/6/5
f 241/6/5 238/6/5 237/6/5
f 242/6/5 238/6/5 241/6/5
f 243/6/5 241/6/5 240/6/5
f 244/6/5 241/6/5 243/6/5
f 248/2/5 246/2/5 245/2/5
f 249/2/5 246/2/5 248/2/5
f 251/2/5 248/2/5 247/2/5
f 252/2/5 248/2/5 251/2/5
f 253/2/5 250/2/5 249/2/5
f 254/2/5 250/2/5 253/2/5
f 255/2/5 253/2/5 252/2/5
f 256/2/5 253/2/5 255/2/5
f 257/2/6 258/2/6 260/2/6
f 260/2/6 258/2/6 261/2/6
f 259/2/6 260/2/6 263/2/6
f 263/2/6 260/2/6 264/2/6
f 261/2/6 262/2/6 265/2/6
f 265/2/6 262/2/6 266/2/6
f 264/2/6 265/2/6 267/2/6
f 267/2/6 265/2/6 268/2/6
f 269/6/6 270/6/6 272/6/6
f 272/6/6 270/6/6 273/6/6
f 271/6/6 272/6/6 275/6/6
f 275/6/6 272/6/6 276/6/6
f 273/6/6 274/6/6 277/6/6
f 277/6/6 274/6/6 278/6/6
f 276/6/6 277/6/6 279/6/6
f 279/6/6 277/6/6 280/6/6
f 281/2/6 282/2/6 284/2/6
f 284/2/6 282/2/6 285/2/6
f 283/2/6 284/2/6 287/2/6
f 285/2/6 286/2/6 287/2/6
f 284/2/6 285/2/6 287/2/6
f 287/2/6 286/2/6 288/2/6
f 283/2/6 287/2/6 289/2/6
f 288/2/6 286/2/6 290/2/6
f 283/2/6 289/2/6 291/2/6
f 289/2/6 290/2/6 291/2/6
f 291/2/6 290/2/6 292/2/6
f 290/2/6 286/2/6 293/2/6
f 292/2/6 290/2/6 293/2/6
f 293/2/6 286/2/6 294/2/6
f 292/2/6 293/2/6 295/2/6
f 295/2/6 293/2/6 296/2/6
f 297/4/6 298/4/6 299/4/6
f 299/4/6 298/4/6 300/4/6
