# MagicaVoxel @ Ephtracy

# group
o 

# material
mtllib train999.mtl
usemtl palette

# normals
vn -1 0 0
vn 1 0 0
vn 0 0 1
vn 0 0 -1
vn 0 -1 0
vn 0 1 0

# texcoords
vt 0.00976563 0.5
vt 0.0292969 0.5
vt 0.0488281 0.5
vt 0.220703 0.5
vt 0.298828 0.5
vt 0.330078 0.5
vt 0.369141 0.5
vt 0.373047 0.5
vt 0.400391 0.5
vt 0.470703 0.5
vt 0.517578 0.5
vt 0.533203 0.5
vt 0.541016 0.5
vt 0.564453 0.5
vt 0.587891 0.5
vt 0.623047 0.5

# verts
v -1.4 -0.2 0.6
v -1.4 -0.2 -0.4
v -1.4 0.8 0.6
v -1.4 0.8 -0.4
v 1.6 -0.2 0.6
v 1.6 -0.2 -0.4
v 1.6 0.2 0.4
v 1.6 0.2 5.96046e-08
v 1.6 0.2 -0.1
v 1.6 0.2 -0.2
v 1.6 0.3 5.96046e-08
v 1.6 0.3 -0.1
v 1.6 0.4 5.96046e-08
v 1.6 0.4 -0.1
v 1.6 0.5 5.96046e-08
v 1.6 0.5 -0.1
v 1.6 0.6 0.4
v 1.6 0.6 -0.2
v 1.6 0.8 0.6
v 1.6 0.8 -0.4
v -1.4 -0.2 0.6
v -1.4 0.8 0.6
v -1.2 0.2 0.6
v -1.2 0.6 0.6
v -1 0.2 0.6
v -1 0.3 0.6
v -1 0.4 0.6
v -0.9 0.2 0.6
v -0.9 0.3 0.6
v -0.9 0.4 0.6
v -0.8 0.2 0.6
v -0.8 0.3 0.6
v -0.8 0.4 0.6
v -0.7 0.2 0.6
v -0.7 0.3 0.6
v -0.7 0.4 0.6
v -0.6 0.2 0.6
v -0.6 0.6 0.6
v -0.2 -0.2 0.6
v -0.2 0.4 0.6
v 0.2 0 0.6
v 0.2 0.2 0.6
v 0.3 0 0.6
v 0.3 0.2 0.6
v 0.4 -0.2 0.6
v 0.4 0.4 0.6
v 0.8 0.2 0.6
v 0.8 0.6 0.6
v 1.2 0.2 0.6
v 1.2 0.3 0.6
v 1.2 0.4 0.6
v 1.3 0.2 0.6
v 1.3 0.3 0.6
v 1.3 0.4 0.6
v 1.4 0.2 0.6
v 1.4 0.6 0.6
v 1.6 -0.2 0.6
v 1.6 0.8 0.6
v -1.4 -0.2 -0.4
v -1.4 0.8 -0.4
v -1 0.2 -0.4
v -1 0.6 -0.4
v -0.8 0.2 -0.4
v -0.8 0.3 -0.4
v -0.8 0.4 -0.4
v -0.7 0.2 -0.4
v -0.7 0.3 -0.4
v -0.7 0.4 -0.4
v -0.4 0.2 -0.4
v -0.4 0.6 -0.4
v -0.2 -0.2 -0.4
v -0.2 0.4 -0.4
v -0.1 0 -0.4
v -0.1 0.2 -0.4
v 0 0 -0.4
v 0 0.2 -0.4
v 0.4 -0.2 -0.4
v 0.4 0.4 -0.4
v 0.6 0.2 -0.4
v 0.6 0.6 -0.4
v 0.7 0.2 -0.4
v 0.7 0.3 -0.4
v 0.7 0.4 -0.4
v 0.8 0.2 -0.4
v 0.8 0.3 -0.4
v 0.8 0.4 -0.4
v 1 0.2 -0.4
v 1 0.3 -0.4
v 1 0.4 -0.4
v 1.1 0.2 -0.4
v 1.1 0.3 -0.4
v 1.1 0.4 -0.4
v 1.2 0.2 -0.4
v 1.2 0.6 -0.4
v 1.6 -0.2 -0.4
v 1.6 0.8 -0.4
v -1.4 -0.2 0.6
v -0.2 -0.2 0.6
v 0.4 -0.2 0.6
v 1.6 -0.2 0.6
v -0.2 -0.2 0.4
v 0.4 -0.2 0.4
v 0 -0.2 -0.2
v 0.4 -0.2 -0.2
v -0.2 -0.2 -0.3
v 0 -0.2 -0.3
v -1.4 -0.2 -0.4
v -0.2 -0.2 -0.4
v 0.4 -0.2 -0.4
v 1.6 -0.2 -0.4
v -1.4 0.8 0.6
v 1.6 0.8 0.6
v -0.8 0.8 0.4
v -0.7 0.8 0.4
v 0.2 0.8 0.4
v 0.3 0.8 0.4
v 1.2 0.8 0.4
v 1.3 0.8 0.4
v -1.2 0.8 0.1
v -0.8 0.8 0.1
v -0.2 0.8 0.1
v 0.2 0.8 0.1
v 0.8 0.8 0.1
v 1.2 0.8 0.1
v -1.1 0.8 5.96046e-08
v -0.8 0.8 5.96046e-08
v -0.1 0.8 5.96046e-08
v 0.2 0.8 5.96046e-08
v 0.9 0.8 5.96046e-08
v 1.2 0.8 5.96046e-08
v -1.1 0.8 -0.2
v -0.8 0.8 -0.2
v -0.1 0.8 -0.2
v 0.2 0.8 -0.2
v 0.9 0.8 -0.2
v 1.2 0.8 -0.2
v -1.2 0.8 -0.3
v -0.7 0.8 -0.3
v -0.2 0.8 -0.3
v 0.3 0.8 -0.3
v 0.8 0.8 -0.3
v 1.3 0.8 -0.3
v -1.4 0.8 -0.4
v 1.6 0.8 -0.4

# faces
f 3/10/1 2/10/1 1/10/1
f 4/10/1 2/10/1 3/10/1
f 5/10/2 6/10/2 7/10/2
f 7/10/2 6/10/2 8/10/2
f 8/10/2 6/10/2 9/10/2
f 9/10/2 6/10/2 10/10/2
f 7/1/2 8/1/2 11/1/2
f 8/13/2 9/13/2 11/13/2
f 9/1/2 10/1/2 12/1/2
f 11/13/2 9/13/2 12/13/2
f 7/1/2 11/1/2 13/1/2
f 11/2/2 12/2/2 13/2/2
f 12/1/2 10/1/2 14/1/2
f 13/2/2 12/2/2 14/2/2
f 7/1/2 13/1/2 15/1/2
f 13/13/2 14/13/2 15/13/2
f 14/1/2 10/1/2 16/1/2
f 15/13/2 14/13/2 16/13/2
f 5/10/2 7/10/2 17/10/2
f 7/1/2 15/1/2 17/1/2
f 15/1/2 16/1/2 17/1/2
f 16/1/2 10/1/2 18/1/2
f 17/1/2 16/1/2 18/1/2
f 10/10/2 6/10/2 18/10/2
f 5/10/2 17/10/2 19/10/2
f 17/10/2 18/10/2 19/10/2
f 18/10/2 6/10/2 20/10/2
f 19/10/2 18/10/2 20/10/2
f 23/10/3 22/10/3 21/10/3
f 24/10/3 22/10/3 23/10/3
f 25/10/3 23/10/3 21/10/3
f 25/1/3 24/1/3 23/1/3
f 26/1/3 24/1/3 25/1/3
f 27/1/3 24/1/3 26/1/3
f 28/10/3 25/10/3 21/10/3
f 28/5/3 26/5/3 25/5/3
f 29/8/3 27/8/3 26/8/3
f 29/5/3 26/5/3 28/5/3
f 30/1/3 24/1/3 27/1/3
f 30/8/3 27/8/3 29/8/3
f 31/1/3 29/1/3 28/1/3
f 31/10/3 28/10/3 21/10/3
f 31/1/3 30/1/3 29/1/3
f 32/1/3 30/1/3 31/1/3
f 33/1/3 24/1/3 30/1/3
f 33/1/3 30/1/3 32/1/3
f 34/6/3 32/6/3 31/6/3
f 34/10/3 31/10/3 21/10/3
f 35/2/3 33/2/3 32/2/3
f 35/6/3 32/6/3 34/6/3
f 36/1/3 24/1/3 33/1/3
f 36/2/3 33/2/3 35/2/3
f 37/1/3 35/1/3 34/1/3
f 37/10/3 34/10/3 21/10/3
f 37/1/3 36/1/3 35/1/3
f 38/10/3 22/10/3 24/10/3
f 38/1/3 36/1/3 37/1/3
f 38/1/3 24/1/3 36/1/3
f 39/10/3 37/10/3 21/10/3
f 39/10/3 38/10/3 37/10/3
f 40/10/3 38/10/3 39/10/3
f 41/3/3 40/3/3 39/3/3
f 42/3/3 40/3/3 41/3/3
f 43/3/3 41/3/3 39/3/3
f 43/11/3 42/11/3 41/11/3
f 44/3/3 40/3/3 42/3/3
f 44/11/3 42/11/3 43/11/3
f 45/3/3 43/3/3 39/3/3
f 45/3/3 44/3/3 43/3/3
f 46/10/3 38/10/3 40/10/3
f 46/3/3 44/3/3 45/3/3
f 46/3/3 40/3/3 44/3/3
f 47/10/3 46/10/3 45/10/3
f 48/10/3 22/10/3 38/10/3
f 48/10/3 46/10/3 47/10/3
f 48/10/3 38/10/3 46/10/3
f 49/10/3 47/10/3 45/10/3
f 49/1/3 48/1/3 47/1/3
f 50/1/3 48/1/3 49/1/3
f 51/1/3 48/1/3 50/1/3
f 52/10/3 49/10/3 45/10/3
f 52/14/3 50/14/3 49/14/3
f 53/7/3 51/7/3 50/7/3
f 53/14/3 50/14/3 52/14/3
f 54/1/3 48/1/3 51/1/3
f 54/7/3 51/7/3 53/7/3
f 55/1/3 53/1/3 52/1/3
f 55/10/3 52/10/3 45/10/3
f 55/1/3 54/1/3 53/1/3
f 56/10/3 22/10/3 48/10/3
f 56/1/3 54/1/3 55/1/3
f 56/1/3 48/1/3 54/1/3
f 57/10/3 55/10/3 45/10/3
f 57/10/3 56/10/3 55/10/3
f 58/10/3 22/10/3 56/10/3
f 58/10/3 56/10/3 57/10/3
f 59/10/4 60/10/4 61/10/4
f 61/10/4 60/10/4 62/10/4
f 59/10/4 61/10/4 63/10/4
f 61/1/4 62/1/4 63/1/4
f 63/1/4 62/1/4 64/1/4
f 64/1/4 62/1/4 65/1/4
f 59/10/4 63/10/4 66/10/4
f 63/15/4 64/15/4 66/15/4
f 64/2/4 65/2/4 67/2/4
f 66/15/4 64/15/4 67/15/4
f 65/1/4 62/1/4 68/1/4
f 67/2/4 65/2/4 68/2/4
f 66/1/4 67/1/4 69/1/4
f 59/10/4 66/10/4 69/10/4
f 67/1/4 68/1/4 69/1/4
f 62/10/4 60/10/4 70/10/4
f 69/1/4 68/1/4 70/1/4
f 68/1/4 62/1/4 70/1/4
f 59/10/4 69/10/4 71/10/4
f 69/10/4 70/10/4 71/10/4
f 71/10/4 70/10/4 72/10/4
f 71/3/4 72/3/4 73/3/4
f 73/3/4 72/3/4 74/3/4
f 71/3/4 73/3/4 75/3/4
f 73/11/4 74/11/4 75/11/4
f 74/3/4 72/3/4 76/3/4
f 75/11/4 74/11/4 76/11/4
f 71/3/4 75/3/4 77/3/4
f 75/3/4 76/3/4 77/3/4
f 72/10/4 70/10/4 78/10/4
f 77/3/4 76/3/4 78/3/4
f 76/3/4 72/3/4 78/3/4
f 77/10/4 78/10/4 79/10/4
f 70/10/4 60/10/4 80/10/4
f 79/10/4 78/10/4 80/10/4
f 78/10/4 70/10/4 80/10/4
f 77/10/4 79/10/4 81/10/4
f 79/1/4 80/1/4 81/1/4
f 81/1/4 80/1/4 82/1/4
f 82/1/4 80/1/4 83/1/4
f 77/10/4 81/10/4 84/10/4
f 81/16/4 82/16/4 84/16/4
f 82/12/4 83/12/4 85/12/4
f 84/16/4 82/16/4 85/16/4
f 83/1/4 80/1/4 86/1/4
f 85/12/4 83/12/4 86/12/4
f 84/1/4 85/1/4 87/1/4
f 77/10/4 84/10/4 87/10/4
f 85/1/4 86/1/4 87/1/4
f 87/1/4 86/1/4 88/1/4
f 86/1/4 80/1/4 89/1/4
f 88/1/4 86/1/4 89/1/4
f 87/4/4 88/4/4 90/4/4
f 77/10/4 87/10/4 90/10/4
f 88/7/4 89/7/4 91/7/4
f 90/4/4 88/4/4 91/4/4
f 89/1/4 80/1/4 92/1/4
f 91/7/4 89/7/4 92/7/4
f 90/1/4 91/1/4 93/1/4
f 77/10/4 90/10/4 93/10/4
f 91/1/4 92/1/4 93/1/4
f 80/10/4 60/10/4 94/10/4
f 93/1/4 92/1/4 94/1/4
f 92/1/4 80/1/4 94/1/4
f 77/10/4 93/10/4 95/10/4
f 93/10/4 94/10/4 95/10/4
f 94/10/4 60/10/4 96/10/4
f 95/10/4 94/10/4 96/10/4
f 101/10/5 98/10/5 97/10/5
f 101/3/5 99/3/5 98/3/5
f 102/10/5 100/10/5 99/10/5
f 102/3/5 99/3/5 101/3/5
f 103/10/5 102/10/5 101/10/5
f 104/10/5 100/10/5 102/10/5
f 104/10/5 102/10/5 103/10/5
f 105/10/5 101/10/5 97/10/5
f 105/10/5 103/10/5 101/10/5
f 106/3/5 104/3/5 103/3/5
f 106/10/5 103/10/5 105/10/5
f 107/10/5 105/10/5 97/10/5
f 108/3/5 106/3/5 105/3/5
f 108/10/5 105/10/5 107/10/5
f 109/10/5 100/10/5 104/10/5
f 109/3/5 106/3/5 108/3/5
f 109/3/5 104/3/5 106/3/5
f 110/10/5 100/10/5 109/10/5
f 111/10/6 112/10/6 113/10/6
f 113/10/6 112/10/6 114/10/6
f 114/10/6 112/10/6 115/10/6
f 115/10/6 112/10/6 116/10/6
f 116/10/6 112/10/6 117/10/6
f 117/10/6 112/10/6 118/10/6
f 111/10/6 113/10/6 119/10/6
f 113/9/6 114/9/6 120/9/6
f 119/10/6 113/10/6 120/10/6
f 114/10/6 115/10/6 121/10/6
f 115/9/6 116/9/6 122/9/6
f 121/10/6 115/10/6 122/10/6
f 116/10/6 117/10/6 123/10/6
f 117/9/6 118/9/6 124/9/6
f 123/10/6 117/10/6 124/10/6
f 119/9/6 120/9/6 125/9/6
f 120/9/6 114/9/6 126/9/6
f 125/9/6 120/9/6 126/9/6
f 121/9/6 122/9/6 127/9/6
f 122/9/6 116/9/6 128/9/6
f 127/9/6 122/9/6 128/9/6
f 123/9/6 124/9/6 129/9/6
f 124/9/6 118/9/6 130/9/6
f 129/9/6 124/9/6 130/9/6
f 119/9/6 125/9/6 131/9/6
f 125/10/6 126/10/6 131/10/6
f 126/9/6 114/9/6 132/9/6
f 131/10/6 126/10/6 132/10/6
f 121/9/6 127/9/6 133/9/6
f 127/10/6 128/10/6 133/10/6
f 128/9/6 116/9/6 134/9/6
f 133/10/6 128/10/6 134/10/6
f 123/9/6 129/9/6 135/9/6
f 129/10/6 130/10/6 135/10/6
f 130/9/6 118/9/6 136/9/6
f 135/10/6 130/10/6 136/10/6
f 111/10/6 119/10/6 137/10/6
f 119/9/6 131/9/6 137/9/6
f 131/9/6 132/9/6 137/9/6
f 114/10/6 121/10/6 138/10/6
f 137/9/6 132/9/6 138/9/6
f 132/9/6 114/9/6 138/9/6
f 133/9/6 134/9/6 139/9/6
f 138/10/6 121/10/6 139/10/6
f 121/9/6 133/9/6 139/9/6
f 116/10/6 123/10/6 140/10/6
f 139/9/6 134/9/6 140/9/6
f 134/9/6 116/9/6 140/9/6
f 123/9/6 135/9/6 141/9/6
f 140/10/6 123/10/6 141/10/6
f 135/9/6 136/9/6 141/9/6
f 118/10/6 112/10/6 142/10/6
f 141/9/6 136/9/6 142/9/6
f 136/9/6 118/9/6 142/9/6
f 140/10/6 141/10/6 143/10/6
f 138/10/6 139/10/6 143/10/6
f 141/10/6 142/10/6 143/10/6
f 137/10/6 138/10/6 143/10/6
f 111/10/6 137/10/6 143/10/6
f 139/10/6 140/10/6 143/10/6
f 142/10/6 112/10/6 144/10/6
f 143/10/6 142/10/6 144/10/6
